<?xml version="1.0" standalone="no"?>
<!DOCTYPE svg PUBLIC "-//W3C//DTD SVG 20010904//EN"
 "http://www.w3.org/TR/2001/REC-SVG-20010904/DTD/svg10.dtd">
<svg version="1.0" xmlns="http://www.w3.org/2000/svg"
 width="225.000000pt" height="225.000000pt" viewBox="0 0 225.000000 225.000000"
 preserveAspectRatio="xMidYMid meet">
<metadata>
Created by potrace 1.11, written by Peter Selinger 2001-2013
</metadata>
<g transform="translate(0.000000,225.000000) scale(0.100000,-0.100000)"
fill="#000000" stroke="none">
<path d="M908 1655 c-2 -2 -76 -5 -166 -9 -172 -6 -230 -16 -274 -47 -65 -47
-94 -180 -96 -449 -3 -273 22 -419 79 -478 29 -29 104 -60 149 -60 8 -1 58 -3
110 -7 130 -8 743 -9 860 -1 107 7 190 23 190 37 0 5 5 9 11 9 21 0 57 52 74
106 25 81 33 189 30 414 -4 282 -26 379 -99 428 -47 32 -78 39 -217 47 -116 7
-645 15 -651 10z"/>
</g>
</svg>
